<svg width="80" height="80" viewBox="0 0 80 80" fill="none" xmlns="http://www.w3.org/2000/svg">
<path d="M40.3052 70.5149C57.1368 70.5149 70.7814 56.8703 70.7814 40.0387C70.7814 23.2072 57.1368 9.5625 40.3052 9.5625C23.4737 9.5625 9.8291 23.2072 9.8291 40.0387C9.8291 56.8703 23.4737 70.5149 40.3052 70.5149Z" fill="url(#paint0_radial_7388_42108)"/>
<path opacity="0.5" d="M40.3052 70.5149C57.1368 70.5149 70.7814 56.8703 70.7814 40.0387C70.7814 23.2072 57.1368 9.5625 40.3052 9.5625C23.4737 9.5625 9.8291 23.2072 9.8291 40.0387C9.8291 56.8703 23.4737 70.5149 40.3052 70.5149Z" fill="url(#paint1_radial_7388_42108)"/>
<path d="M33.6574 28.9146C33.8289 27.6955 32.6098 26.7622 30.3622 26.4765C28.4384 26.2289 24.1146 26.7051 20.7051 30.0384C20.0765 30.6479 20.8575 31.1432 21.4289 30.7622C23.4098 29.486 28.4384 28.1908 32.0955 29.086C33.5813 29.467 33.6574 28.9146 33.6574 28.9146Z" fill="url(#paint2_linear_7388_42108)"/>
<path d="M46.9525 28.9146C46.7811 27.6955 48.0001 26.7622 50.2477 26.4765C52.1715 26.2289 56.4954 26.7051 59.9049 30.0384C60.5334 30.6479 59.7525 31.1432 59.1811 30.7622C57.2001 29.486 52.1715 28.1908 48.5144 29.086C47.0096 29.467 46.9525 28.9146 46.9525 28.9146Z" fill="url(#paint3_linear_7388_42108)"/>
<path d="M40.3052 70.5149C57.1368 70.5149 70.7814 56.8703 70.7814 40.0387C70.7814 23.2072 57.1368 9.5625 40.3052 9.5625C23.4737 9.5625 9.8291 23.2072 9.8291 40.0387C9.8291 56.8703 23.4737 70.5149 40.3052 70.5149Z" fill="url(#paint4_radial_7388_42108)"/>
<path opacity="0.5" d="M40.3052 70.5149C57.1368 70.5149 70.7814 56.8703 70.7814 40.0387C70.7814 23.2072 57.1368 9.5625 40.3052 9.5625C23.4737 9.5625 9.8291 23.2072 9.8291 40.0387C9.8291 56.8703 23.4737 70.5149 40.3052 70.5149Z" fill="url(#paint5_radial_7388_42108)"/>
<path opacity="0.75" d="M40.3052 70.5149C57.1368 70.5149 70.7814 56.8703 70.7814 40.0387C70.7814 23.2072 57.1368 9.5625 40.3052 9.5625C23.4737 9.5625 9.8291 23.2072 9.8291 40.0387C9.8291 56.8703 23.4737 70.5149 40.3052 70.5149Z" fill="url(#paint6_radial_7388_42108)"/>
<path opacity="0.4" d="M34.1716 61.4097C38.0113 61.4097 41.124 58.297 41.124 54.4573C41.124 50.6176 38.0113 47.5049 34.1716 47.5049C30.3319 47.5049 27.2192 50.6176 27.2192 54.4573C27.2192 58.297 30.3319 61.4097 34.1716 61.4097Z" fill="url(#paint7_radial_7388_42108)"/>
<path d="M40.9335 58.0002C42.0065 58.0002 42.8764 56.8745 42.8764 55.4859C42.8764 54.0973 42.0065 52.9717 40.9335 52.9717C39.8605 52.9717 38.9907 54.0973 38.9907 55.4859C38.9907 56.8745 39.8605 58.0002 40.9335 58.0002Z" fill="url(#paint8_linear_7388_42108)"/>
<path d="M68 45.7529C68.1142 46.8005 67.4285 48.6672 66.3428 49.8862C65.5238 50.8196 64.3809 51.1815 63.2381 50.972C63.0095 50.9339 62.8 50.8767 62.5714 50.7815C61.1047 50.172 59.7142 49.1053 58.2285 49.3339L48.8 50.7053C47.5428 50.8958 46.3238 51.2196 45.1428 51.6958L40.1904 54.2672L40.4571 56.0577L45.9238 57.1053C47.2 57.2386 48.4571 57.2005 49.7142 57.0291L61.5809 55.2958L64.9904 54.191L69.4095 50.8386C70.419 49.9815 70.4 48.0958 69.3714 47.1243L68 45.7529Z" fill="url(#paint9_linear_7388_42108)"/>
<path d="M48.0761 50.8379C47.0857 51.0283 46.1142 51.314 45.1619 51.714L40.2095 54.2855L40.4761 56.076L45.9428 57.1236C46.9523 57.2188 47.9809 57.2188 48.9714 57.1236C48.4761 57.0283 47.9047 55.7331 47.6761 54.1141C47.4476 52.4569 47.619 51.0664 48.0761 50.8379Z" fill="url(#paint10_linear_7388_42108)"/>
<path d="M68 45.7529C68.1142 46.8005 67.4285 48.6672 66.3428 49.8862C65.5238 50.8196 64.3809 51.1815 63.238 50.972C63.0095 50.9339 62.8 50.8767 62.5714 50.7815C61.1047 50.172 59.7142 49.1053 58.2285 49.3339L48.8 50.7053C47.5428 50.8958 46.3238 51.2196 45.1428 51.6958L40.1904 54.2672L40.4571 56.0577L45.9238 57.1053C47.2 57.2386 48.4571 57.2005 49.7142 57.0291L60.9714 55.391L64.2857 54.7053L69.3904 50.8577C70.4 50.0005 70.3809 48.1148 69.3523 47.1434L68 45.7529Z" fill="url(#paint11_linear_7388_42108)"/>
<path d="M60.9907 55.3911C67.3335 54.4768 73.6002 52.8768 72.2478 44.5339C71.2764 38.4768 62.0573 37.9244 61.5431 42.172C62.2097 41.4482 63.1811 39.9816 63.8859 39.9625C67.1811 39.8482 68.1907 43.6387 68.2478 45.6768C68.3621 50.7816 64.1335 54.9339 60.9907 55.3911Z" fill="url(#paint12_linear_7388_42108)"/>
<path d="M66.9143 42.9715C67.7905 43.2572 68.0191 44.6477 68 45.7334C68 45.7334 68.2477 46.362 68.0762 46.6286L68.2096 46.381C68.2096 46.362 68.2286 45.6762 68.2286 45.6572C68.1715 43.6191 67.1238 39.7905 63.8667 39.9429C60.8953 40.0953 61.1239 44.4 61.9429 45.6L62.4001 46.3429L65.9239 45.6953C65.4667 43.3715 66.2096 42.7429 66.9143 42.9715Z" fill="url(#paint13_linear_7388_42108)"/>
<path d="M61.4473 43.79C61.5997 44.99 62.0949 46.1329 62.6092 46.0567C63.1235 45.9805 63.333 44.8186 63.2378 44.1329L67.6759 44.7996C67.7711 45.4281 67.5806 46.4948 67.1044 46.571L62.6664 46.4948C61.6378 46.4758 61.4473 44.3234 61.4473 43.79Z" fill="url(#paint14_linear_7388_42108)"/>
<path d="M40.9716 55.4102C40.3811 59.8673 36.7811 60.8387 37.5049 59.5625C38.4573 57.8292 38.6858 56.6864 38.8954 55.1435C39.1049 53.6006 39.1811 52.4387 38.7239 50.5149C38.362 49.0864 41.562 50.953 40.9716 55.4102Z" fill="#643800"/>
<path d="M38.7046 50.5143C39.1808 52.4381 39.0855 53.6 38.876 55.1428C38.6665 56.6857 38.4379 57.8285 37.4855 59.5619C37.2379 60.019 37.5046 60.1905 37.9998 60.0381C37.9808 60.0381 37.5046 59.9047 37.9427 59.3143C38.6093 58.4381 39.6379 57.1428 39.8855 55.2952C40.1331 53.4285 39.4855 51.9238 39.0665 50.8952C38.8189 50.2095 39.3141 50.2095 39.3141 50.2095C38.895 49.9238 38.5903 50.019 38.7046 50.5143Z" fill="url(#paint15_linear_7388_42108)"/>
<path opacity="0.75" d="M68 45.7529C68.1142 46.8005 67.4285 48.6672 66.3428 49.8862C65.5238 50.8196 64.3809 51.1815 63.238 50.972C63.0095 50.9339 62.8 50.8767 62.5714 50.7815C61.1047 50.172 59.7142 49.1053 58.2285 49.3339L48.8 50.7053C47.5428 50.8958 46.3238 51.2196 45.1428 51.6958L40.1904 54.2672L40.4571 56.0577L45.9238 57.1053C47.2 57.2386 48.4571 57.2005 49.7142 57.0291L60.9714 55.391L64.2857 54.7053L69.3904 50.8577C70.4 50.0005 70.3809 48.1148 69.3523 47.1434L68 45.7529Z" fill="url(#paint16_radial_7388_42108)"/>
<path opacity="0.75" d="M60.9907 55.3911C67.3335 54.4768 73.6002 52.8768 72.2478 44.5339C71.2764 38.4768 62.0573 37.9244 61.5431 42.172C62.2097 41.4482 63.1811 39.9816 63.8859 39.9625C67.1811 39.8482 68.1907 43.6387 68.2478 45.6768C68.3621 50.7816 64.1335 54.9339 60.9907 55.3911Z" fill="url(#paint17_radial_7388_42108)"/>
<path d="M26.5336 15.1242C26.8194 14.9909 26.8384 14.5909 26.5527 14.4385L23.7527 12.9718L6.99081 4.26706C6.64796 4.09563 5.27653 3.48611 3.73367 4.78135C2.09557 6.20992 2.47653 7.29563 2.59081 7.63849L11.2955 30.1718C11.486 30.6861 12.2098 30.6671 12.4003 30.1528C14.5336 24.0956 23.1622 16.6861 26.5336 15.1242Z" fill="url(#paint18_linear_7388_42108)"/>
<path d="M23.7718 12.9709L20.3051 11.1804C19.048 10.609 8.49562 18.5899 8.76229 23.5423L10.7813 28.7614C8.36229 22.5518 22.0765 12.0947 23.7718 12.9709Z" fill="url(#paint19_linear_7388_42108)"/>
<path d="M16.781 9.37146L16.0001 8.95241L13.3144 7.56194C12.1906 7.4667 5.90485 12.2858 5.65723 15.5429L7.33342 19.8477C6.95246 15.3334 15.6382 8.76194 16.781 9.37146Z" fill="url(#paint20_linear_7388_42108)"/>
<path d="M7.20026 4.40039C6.20978 4.76229 3.63836 6.7242 2.91455 8.43848L4.66693 12.9909C3.60026 10.2099 9.16216 6.01944 10.3431 6.01944L7.20026 4.40039Z" fill="url(#paint21_linear_7388_42108)"/>
<path opacity="0.75" d="M26.5336 15.1242C26.8194 14.9909 26.8384 14.5909 26.5527 14.4385L23.7527 12.9718L6.99081 4.26706C6.64796 4.09563 5.27653 3.48611 3.73367 4.78135C2.09557 6.20992 2.47653 7.29563 2.59081 7.63849L11.2955 30.1718C11.486 30.6861 12.2098 30.6671 12.4003 30.1528C14.5336 24.0956 23.1622 16.6861 26.5336 15.1242Z" fill="url(#paint22_radial_7388_42108)"/>
<path opacity="0.75" d="M26.5336 15.1242C26.8194 14.9909 26.8384 14.5909 26.5527 14.4385L23.7527 12.9718L6.99081 4.26706C6.64796 4.09563 5.27653 3.48611 3.73367 4.78135C2.09557 6.20992 2.47653 7.29563 2.59081 7.63849L11.2955 30.1718C11.486 30.6861 12.2098 30.6671 12.4003 30.1528C14.5336 24.0956 23.1622 16.6861 26.5336 15.1242Z" fill="url(#paint23_radial_7388_42108)"/>
<path opacity="0.75" d="M26.5336 15.1242C26.8194 14.9909 26.8384 14.5909 26.5527 14.4385L23.7527 12.9718L6.99081 4.26706C6.64796 4.09563 5.27653 3.48611 3.73367 4.78135C2.09557 6.20992 2.47653 7.29563 2.59081 7.63849L11.2955 30.1718C11.486 30.6861 12.2098 30.6671 12.4003 30.1528C14.5336 24.0956 23.1622 16.6861 26.5336 15.1242Z" fill="url(#paint24_radial_7388_42108)"/>
<path d="M32.0573 35.1241C29.943 33.8099 27.2192 33.9622 25.2382 35.448C24.2287 36.2099 23.2382 37.3718 22.6478 39.1813C22.5525 39.486 22.4763 39.8099 22.4573 40.1337C22.4192 40.7813 22.8763 41.3718 23.6001 40.686C29.2382 35.3718 33.1811 40.8384 33.1811 40.8384C33.943 41.3908 34.724 40.248 34.5716 39.1813C34.5335 38.8765 34.4954 38.5527 34.4002 38.267C33.9621 36.7241 33.0287 35.7527 32.0573 35.1241Z" fill="url(#paint25_radial_7388_42108)"/>
<path d="M34.3999 38.2666C34.1904 37.619 33.9237 37.0857 33.638 36.6285C33.1809 35.9809 32.6285 35.5047 32.0571 35.1428C29.9428 33.8285 27.219 33.9809 25.238 35.4666C24.2285 36.2285 23.238 37.3904 22.6475 39.2C22.5904 39.3714 22.5523 39.5619 22.5142 39.7523C22.5142 39.7523 22.5142 39.7523 22.5142 39.7714C24.9904 35.9047 28.5713 35.6381 28.5713 35.6381C28.5713 35.6381 32.1142 35.3333 34.5142 38.8C34.4761 38.6095 34.4571 38.4381 34.3999 38.2666Z" fill="url(#paint26_linear_7388_42108)"/>
<path d="M48.5525 35.1241C50.6668 33.8099 53.3906 33.9622 55.3716 35.448C56.3811 36.2099 57.3716 37.3718 57.9621 39.1813C58.0573 39.486 58.1335 39.8099 58.1526 40.1337C58.1906 40.7813 57.7335 41.3718 57.0097 40.686C51.3716 35.3718 47.4287 40.8384 47.4287 40.8384C46.6668 41.3908 45.8859 40.248 46.0383 39.1813C46.0764 38.8765 46.1144 38.5527 46.2097 38.267C46.6287 36.7241 47.5621 35.7527 48.5525 35.1241Z" fill="url(#paint27_radial_7388_42108)"/>
<path d="M46.1905 38.2666C46.4 37.619 46.6667 37.0857 46.9524 36.6285C47.4096 35.9809 47.9619 35.5047 48.5334 35.1428C50.6477 33.8285 53.3715 33.9809 55.3524 35.4666C56.3619 36.2285 57.3524 37.3904 57.9429 39.2C58 39.3714 58.0381 39.5619 58.0762 39.7523C58.0762 39.7523 58.0762 39.7523 58.0762 39.7714C55.6 35.9047 52.0191 35.6381 52.0191 35.6381C52.0191 35.6381 48.4762 35.3333 46.0762 38.8C46.1143 38.6095 46.1524 38.419 46.1905 38.2666Z" fill="url(#paint28_linear_7388_42108)"/>
<path d="M47.4287 57.1811C46.9525 57.0478 46.4573 55.8097 46.2287 54.2859C46.0192 52.8383 46.1525 51.5811 46.5144 51.2383C46.0573 51.3716 45.6001 51.543 45.162 51.7145L45.1049 51.7335C44.8192 52.1526 44.6668 53.2002 44.8382 54.4573C45.0096 55.6764 45.4668 56.6859 45.8477 57.0859L45.943 57.1049C46.4382 57.1621 46.9334 57.1811 47.4287 57.1811Z" fill="url(#paint29_linear_7388_42108)"/>
<g opacity="0.25">
<path opacity="0.25" d="M16.0763 31.9049C17.0668 34.7621 14.5715 35.5049 15.3906 37.3526L18.1715 36.6287C17.3525 34.7811 19.5239 34.0764 18.6477 31.124L16.0763 31.9049Z" fill="url(#paint30_radial_7388_42108)"/>
<path opacity="0.25" d="M63.1429 22.6662C59.3333 24.8186 58.3619 20.3805 55.7905 21.371L56.5905 25.1995C59.1429 24.2281 60.2286 28.3805 64.0381 26.2281L63.1429 22.6662Z" fill="url(#paint31_radial_7388_42108)"/>
<path opacity="0.25" d="M32.1715 18.2474C32.6028 18.2474 32.9525 17.8978 32.9525 17.4665C32.9525 17.0352 32.6028 16.6855 32.1715 16.6855C31.7402 16.6855 31.3906 17.0352 31.3906 17.4665C31.3906 17.8978 31.7402 18.2474 32.1715 18.2474Z" fill="url(#paint32_radial_7388_42108)"/>
<path opacity="0.25" d="M52.2096 17.9047C52.6409 17.9047 52.9906 17.5551 52.9906 17.1238C52.9906 16.6925 52.6409 16.3428 52.2096 16.3428C51.7783 16.3428 51.4287 16.6925 51.4287 17.1238C51.4287 17.5551 51.7783 17.9047 52.2096 17.9047Z" fill="url(#paint33_radial_7388_42108)"/>
<path opacity="0.25" d="M66.3048 36.647C66.7361 36.647 67.0858 36.2973 67.0858 35.866C67.0858 35.4347 66.7361 35.085 66.3048 35.085C65.8735 35.085 65.5239 35.4347 65.5239 35.866C65.5239 36.2973 65.8735 36.647 66.3048 36.647Z" fill="url(#paint34_radial_7388_42108)"/>
<path opacity="0.25" d="M17.4289 47.9242C17.8602 47.9242 18.2099 47.5745 18.2099 47.1432C18.2099 46.7119 17.8602 46.3623 17.4289 46.3623C16.9976 46.3623 16.6479 46.7119 16.6479 47.1432C16.6479 47.5745 16.9976 47.9242 17.4289 47.9242Z" fill="url(#paint35_radial_7388_42108)"/>
<path opacity="0.25" d="M54.5525 64.0189C54.9838 64.0189 55.3335 63.6693 55.3335 63.238C55.3335 62.8067 54.9838 62.457 54.5525 62.457C54.1212 62.457 53.7715 62.8067 53.7715 63.238C53.7715 63.6693 54.1212 64.0189 54.5525 64.0189Z" fill="url(#paint36_radial_7388_42108)"/>
<path opacity="0.25" d="M52.1715 45.0092C52.6028 45.0092 52.9525 44.6596 52.9525 44.2283C52.9525 43.797 52.6028 43.4473 52.1715 43.4473C51.7402 43.4473 51.3906 43.797 51.3906 44.2283C51.3906 44.6596 51.7402 45.0092 52.1715 45.0092Z" fill="url(#paint37_radial_7388_42108)"/>
<path opacity="0.25" d="M44.3812 18.6474C44.305 17.4093 44.1907 16.1141 44.0383 14.7617C39.2383 17.7712 37.4097 21.4284 37.4097 21.4284L38.8383 24.5141C40.3431 21.6569 42.8383 19.676 44.3812 18.6474Z" fill="url(#paint38_radial_7388_42108)"/>
</g>
<path d="M15.6569 30.2292C16.6474 33.0863 14.1522 33.8292 14.9712 35.6768L17.7522 34.953C16.9331 33.1054 19.1046 32.4006 18.2284 29.4482L15.6569 30.2292Z" fill="url(#paint39_linear_7388_42108)"/>
<path d="M63.1434 21.1242C59.3338 23.2766 58.3624 18.8385 55.791 19.829L56.591 23.6576C59.1434 22.6861 60.2291 26.8385 64.0386 24.6861L63.1434 21.1242Z" fill="url(#paint40_linear_7388_42108)"/>
<path d="M64.5524 16.7622C64.9837 16.7622 65.3334 16.4125 65.3334 15.9812C65.3334 15.5499 64.9837 15.2002 64.5524 15.2002C64.1211 15.2002 63.7715 15.5499 63.7715 15.9812C63.7715 16.4125 64.1211 16.7622 64.5524 16.7622Z" fill="url(#paint41_linear_7388_42108)"/>
<path d="M32.1716 17.1049C32.6029 17.1049 32.9525 16.7552 32.9525 16.3239C32.9525 15.8926 32.6029 15.543 32.1716 15.543C31.7403 15.543 31.3906 15.8926 31.3906 16.3239C31.3906 16.7552 31.7403 17.1049 32.1716 17.1049Z" fill="url(#paint42_linear_7388_42108)"/>
<path d="M52.2097 16.7622C52.641 16.7622 52.9906 16.4125 52.9906 15.9812C52.9906 15.5499 52.641 15.2002 52.2097 15.2002C51.7784 15.2002 51.4287 15.5499 51.4287 15.9812C51.4287 16.4125 51.7784 16.7622 52.2097 16.7622Z" fill="url(#paint43_linear_7388_42108)"/>
<path d="M66.3049 35.5053C66.7362 35.5053 67.0858 35.1556 67.0858 34.7243C67.0858 34.293 66.7362 33.9434 66.3049 33.9434C65.8736 33.9434 65.5239 34.293 65.5239 34.7243C65.5239 35.1556 65.8736 35.5053 66.3049 35.5053Z" fill="url(#paint44_linear_7388_42108)"/>
<path d="M17.2571 47.0287C17.6884 47.0287 18.038 46.6791 18.038 46.2478C18.038 45.8165 17.6884 45.4668 17.2571 45.4668C16.8258 45.4668 16.4761 45.8165 16.4761 46.2478C16.4761 46.6791 16.8258 47.0287 17.2571 47.0287Z" fill="url(#paint45_linear_7388_42108)"/>
<path d="M52.0764 43.9437C52.5077 43.9437 52.8573 43.594 52.8573 43.1627C52.8573 42.7314 52.5077 42.3818 52.0764 42.3818C51.6451 42.3818 51.2954 42.7314 51.2954 43.1627C51.2954 43.594 51.6451 43.9437 52.0764 43.9437Z" fill="url(#paint46_linear_7388_42108)"/>
<path d="M11.067 58.1908C11.4984 58.1908 11.848 57.8412 11.848 57.4099C11.848 56.9786 11.4984 56.6289 11.067 56.6289C10.6357 56.6289 10.2861 56.9786 10.2861 57.4099C10.2861 57.8412 10.6357 58.1908 11.067 58.1908Z" fill="url(#paint47_linear_7388_42108)"/>
<path d="M44.781 15.9238C44.7048 14.6857 44.5906 13.3905 44.4382 12.0381C39.6382 15.0477 37.8096 18.7048 37.8096 18.7048L39.2382 21.7905C40.7429 18.9524 43.2382 16.9524 44.781 15.9238Z" fill="url(#paint48_linear_7388_42108)"/>
<path d="M29.7335 52.6471C30.1716 61.1043 23.2573 63.2948 21.1812 63.7709C22.2669 64.6471 23.4097 65.4471 24.6288 66.1709C28.4002 64.59 34.6097 60.609 32.5145 51.8281C31.4859 52.0948 30.5526 52.3614 29.7335 52.6471Z" fill="url(#paint49_radial_7388_42108)"/>
<path d="M27.7523 51.1994C28.2666 61.1423 18.6094 62.4375 18.6094 62.4375L19.9618 65.6185C19.9618 65.6185 33.4666 62.7423 30.5332 50.3994C29.5047 50.647 28.5713 50.9137 27.7523 51.1994Z" fill="url(#paint50_linear_7388_42108)"/>
<defs>
<radialGradient id="paint0_radial_7388_42108" cx="0" cy="0" r="1" gradientUnits="userSpaceOnUse" gradientTransform="translate(34.3016 27.6836) scale(36.7656 36.7656)">
<stop stop-color="#FFE030"/>
<stop offset="1" stop-color="#FFB92E"/>
</radialGradient>
<radialGradient id="paint1_radial_7388_42108" cx="0" cy="0" r="1" gradientUnits="userSpaceOnUse" gradientTransform="translate(34.3016 27.6836) scale(28.9251 28.9251)">
<stop stop-color="#FFEA5F"/>
<stop offset="1" stop-color="#FFBC47" stop-opacity="0"/>
</radialGradient>
<linearGradient id="paint2_linear_7388_42108" x1="27.0063" y1="30.0845" x2="27.4334" y2="26.9017" gradientUnits="userSpaceOnUse">
<stop offset="0.00132565" stop-color="#3C2200"/>
<stop offset="1" stop-color="#7A4400"/>
</linearGradient>
<linearGradient id="paint3_linear_7388_42108" x1="53.5932" y1="30.0836" x2="53.1661" y2="26.9008" gradientUnits="userSpaceOnUse">
<stop offset="0.00132565" stop-color="#3C2200"/>
<stop offset="1" stop-color="#7A4400"/>
</linearGradient>
<radialGradient id="paint4_radial_7388_42108" cx="0" cy="0" r="1" gradientUnits="userSpaceOnUse" gradientTransform="translate(17.4134 20.3188) rotate(-45.5348) scale(23.3841 9.60696)">
<stop stop-color="#EB672A" stop-opacity="0.5"/>
<stop offset="0.3025" stop-color="#E36521" stop-opacity="0.3422"/>
<stop offset="0.7868" stop-color="#CC600A" stop-opacity="0.0897045"/>
<stop offset="0.9589" stop-color="#C25E00" stop-opacity="0"/>
</radialGradient>
<radialGradient id="paint5_radial_7388_42108" cx="0" cy="0" r="1" gradientUnits="userSpaceOnUse" gradientTransform="translate(23.6817 47.6164) rotate(-2.7703) scale(12.819 10.143)">
<stop stop-color="#FF4C00"/>
<stop offset="0.1995" stop-color="#F94C0E" stop-opacity="0.8005"/>
<stop offset="0.7145" stop-color="#EC4A2E" stop-opacity="0.2855"/>
<stop offset="1" stop-color="#E74A3A" stop-opacity="0"/>
</radialGradient>
<radialGradient id="paint6_radial_7388_42108" cx="0" cy="0" r="1" gradientUnits="userSpaceOnUse" gradientTransform="translate(56.62 57.0302) rotate(-0.40159) scale(20.3819 4.6267)">
<stop stop-color="#7A4400" stop-opacity="0.5"/>
<stop offset="0.5833" stop-color="#894D00" stop-opacity="0.2069"/>
<stop offset="0.995" stop-color="#975500" stop-opacity="0"/>
</radialGradient>
<radialGradient id="paint7_radial_7388_42108" cx="0" cy="0" r="1" gradientUnits="userSpaceOnUse" gradientTransform="translate(36.3788 55.7752) rotate(4.55396) scale(7.19701 5.08873)">
<stop stop-color="white" stop-opacity="0.75"/>
<stop offset="1" stop-color="white" stop-opacity="0"/>
</radialGradient>
<linearGradient id="paint8_linear_7388_42108" x1="38.9798" y1="55.4792" x2="42.8731" y2="55.4792" gradientUnits="userSpaceOnUse">
<stop offset="0.00132565" stop-color="#3C2200"/>
<stop offset="1" stop-color="#512D00"/>
</linearGradient>
<linearGradient id="paint9_linear_7388_42108" x1="55.1748" y1="51.5837" x2="56.5166" y2="60.792" gradientUnits="userSpaceOnUse">
<stop stop-color="#FF40BF"/>
<stop offset="0.8932" stop-color="#7000A3"/>
</linearGradient>
<linearGradient id="paint10_linear_7388_42108" x1="43.8612" y1="50.6953" x2="44.7811" y2="57.0084" gradientUnits="userSpaceOnUse">
<stop offset="0.2544" stop-color="#D1F2FF"/>
<stop offset="1" stop-color="#17BBFE"/>
</linearGradient>
<linearGradient id="paint11_linear_7388_42108" x1="57.496" y1="52.0162" x2="71.9956" y2="45.793" gradientUnits="userSpaceOnUse">
<stop stop-color="#7000A3" stop-opacity="0"/>
<stop offset="0.2242" stop-color="#530078" stop-opacity="0.2242"/>
<stop offset="0.5925" stop-color="#260038" stop-opacity="0.5925"/>
<stop offset="0.8613" stop-color="#0B000F" stop-opacity="0.8613"/>
<stop offset="1"/>
</linearGradient>
<linearGradient id="paint12_linear_7388_42108" x1="69.9705" y1="61.7017" x2="65.5711" y2="46.2578" gradientUnits="userSpaceOnUse">
<stop/>
<stop offset="0.1488" stop-color="#27002D"/>
<stop offset="0.4631" stop-color="#760086"/>
<stop offset="0.7193" stop-color="#B000C7"/>
<stop offset="0.9045" stop-color="#D300F0"/>
<stop offset="1" stop-color="#E100FF"/>
</linearGradient>
<linearGradient id="paint13_linear_7388_42108" x1="65.5248" y1="37.664" x2="64.0818" y2="51.8546" gradientUnits="userSpaceOnUse">
<stop/>
<stop offset="0.1488" stop-color="#27002D"/>
<stop offset="0.4631" stop-color="#760086"/>
<stop offset="0.7193" stop-color="#B000C7"/>
<stop offset="0.9045" stop-color="#D300F0"/>
<stop offset="1" stop-color="#E100FF"/>
</linearGradient>
<linearGradient id="paint14_linear_7388_42108" x1="65.1949" y1="48.8748" x2="64.5882" y2="44.7115" gradientUnits="userSpaceOnUse">
<stop stop-color="#7000A3"/>
<stop offset="0.4469" stop-color="#A900D2"/>
<stop offset="0.8117" stop-color="#D200F2"/>
<stop offset="1" stop-color="#E100FF"/>
</linearGradient>
<linearGradient id="paint15_linear_7388_42108" x1="36.5318" y1="54.8275" x2="39.7869" y2="55.2625" gradientUnits="userSpaceOnUse">
<stop offset="0.00132565" stop-color="#3C2200"/>
<stop offset="1" stop-color="#512D00"/>
</linearGradient>
<radialGradient id="paint16_radial_7388_42108" cx="0" cy="0" r="1" gradientUnits="userSpaceOnUse" gradientTransform="translate(52.9829 52.1149) rotate(-8.28692) scale(11.0217 1.22912)">
<stop stop-color="white" stop-opacity="0.5"/>
<stop offset="1" stop-color="white" stop-opacity="0"/>
</radialGradient>
<radialGradient id="paint17_radial_7388_42108" cx="0" cy="0" r="1" gradientUnits="userSpaceOnUse" gradientTransform="translate(70.3612 43.6095) rotate(77.7176) scale(5.54615 1.24116)">
<stop stop-color="white" stop-opacity="0.5"/>
<stop offset="1" stop-color="white" stop-opacity="0"/>
</radialGradient>
<linearGradient id="paint18_linear_7388_42108" x1="21.9463" y1="7.80297" x2="4.29037" y2="20.1901" gradientUnits="userSpaceOnUse">
<stop offset="0.2544" stop-color="#D1F2FF"/>
<stop offset="1" stop-color="#17BBFE"/>
</linearGradient>
<linearGradient id="paint19_linear_7388_42108" x1="23.4766" y1="12.6757" x2="8.05332" y2="25.57" gradientUnits="userSpaceOnUse">
<stop stop-color="#FF40BF"/>
<stop offset="0.7456" stop-color="#7000A3"/>
</linearGradient>
<linearGradient id="paint20_linear_7388_42108" x1="16.0229" y1="8.51092" x2="5.29391" y2="17.4806" gradientUnits="userSpaceOnUse">
<stop stop-color="#FF40BF"/>
<stop offset="0.7456" stop-color="#7000A3"/>
</linearGradient>
<linearGradient id="paint21_linear_7388_42108" x1="9.70597" y1="5.31938" x2="2.94006" y2="10.9759" gradientUnits="userSpaceOnUse">
<stop stop-color="#FF40BF"/>
<stop offset="0.7456" stop-color="#7000A3"/>
</linearGradient>
<radialGradient id="paint22_radial_7388_42108" cx="0" cy="0" r="1" gradientUnits="userSpaceOnUse" gradientTransform="translate(8.49301 16.917) rotate(65.3021) scale(12.647 3.11471)">
<stop stop-color="#440063" stop-opacity="0.75"/>
<stop offset="1" stop-color="#420061" stop-opacity="0"/>
</radialGradient>
<radialGradient id="paint23_radial_7388_42108" cx="0" cy="0" r="1" gradientUnits="userSpaceOnUse" gradientTransform="translate(14.0327 11.1617) rotate(31.2018) scale(12.6468 3.11512)">
<stop stop-color="white" stop-opacity="0.5"/>
<stop offset="1" stop-color="white" stop-opacity="0"/>
</radialGradient>
<radialGradient id="paint24_radial_7388_42108" cx="0" cy="0" r="1" gradientUnits="userSpaceOnUse" gradientTransform="translate(18.1244 27.5645) rotate(30.2004) scale(15.606 15.8898)">
<stop stop-color="#440063" stop-opacity="0.75"/>
<stop offset="1" stop-color="#420061" stop-opacity="0"/>
</radialGradient>
<radialGradient id="paint25_radial_7388_42108" cx="0" cy="0" r="1" gradientUnits="userSpaceOnUse" gradientTransform="translate(28.5848 37.8162) rotate(175.474) scale(4.70179 3.33396)">
<stop offset="0.00132565" stop-color="#7A4400"/>
<stop offset="1" stop-color="#643800"/>
</radialGradient>
<linearGradient id="paint26_linear_7388_42108" x1="29.0421" y1="31.8981" x2="28.6688" y2="37.0157" gradientUnits="userSpaceOnUse">
<stop offset="0.00132565" stop-color="#3C2200"/>
<stop offset="1" stop-color="#512D00"/>
</linearGradient>
<radialGradient id="paint27_radial_7388_42108" cx="0" cy="0" r="1" gradientUnits="userSpaceOnUse" gradientTransform="translate(52.0077 37.8161) rotate(4.52557) scale(4.70179 3.33396)">
<stop offset="0.00132565" stop-color="#7A4400"/>
<stop offset="1" stop-color="#643800"/>
</radialGradient>
<linearGradient id="paint28_linear_7388_42108" x1="51.5507" y1="31.8981" x2="51.9239" y2="37.0156" gradientUnits="userSpaceOnUse">
<stop offset="0.00132565" stop-color="#3C2200"/>
<stop offset="1" stop-color="#512D00"/>
</linearGradient>
<linearGradient id="paint29_linear_7388_42108" x1="45.733" y1="52.7941" x2="46.4905" y2="58.5835" gradientUnits="userSpaceOnUse">
<stop stop-color="#FF40BF"/>
<stop offset="0.8932" stop-color="#7000A3"/>
</linearGradient>
<radialGradient id="paint30_radial_7388_42108" cx="0" cy="0" r="1" gradientUnits="userSpaceOnUse" gradientTransform="translate(25.4278 20.1194) scale(68.6114 68.6114)">
<stop stop-color="#7A4400" stop-opacity="0.5"/>
<stop offset="0.5833" stop-color="#894D00" stop-opacity="0.2069"/>
<stop offset="0.995" stop-color="#975500" stop-opacity="0"/>
</radialGradient>
<radialGradient id="paint31_radial_7388_42108" cx="0" cy="0" r="1" gradientUnits="userSpaceOnUse" gradientTransform="translate(20.5623 13.7076) rotate(0.0419929) scale(93.3525 93.2905)">
<stop stop-color="#7A4400" stop-opacity="0.5"/>
<stop offset="0.5833" stop-color="#894D00" stop-opacity="0.2069"/>
<stop offset="0.995" stop-color="#975500" stop-opacity="0"/>
</radialGradient>
<radialGradient id="paint32_radial_7388_42108" cx="0" cy="0" r="1" gradientUnits="userSpaceOnUse" gradientTransform="translate(28.6659 17.2381) scale(68.6115 68.6115)">
<stop stop-color="#7A4400" stop-opacity="0.5"/>
<stop offset="0.5833" stop-color="#894D00" stop-opacity="0.2069"/>
<stop offset="0.995" stop-color="#975500" stop-opacity="0"/>
</radialGradient>
<radialGradient id="paint33_radial_7388_42108" cx="0" cy="0" r="1" gradientUnits="userSpaceOnUse" gradientTransform="translate(28.666 17.2382) scale(68.6114 68.6115)">
<stop stop-color="#7A4400" stop-opacity="0.5"/>
<stop offset="0.5833" stop-color="#894D00" stop-opacity="0.2069"/>
<stop offset="0.995" stop-color="#975500" stop-opacity="0"/>
</radialGradient>
<radialGradient id="paint34_radial_7388_42108" cx="0" cy="0" r="1" gradientUnits="userSpaceOnUse" gradientTransform="translate(28.6658 17.2376) scale(68.6117 68.6115)">
<stop stop-color="#7A4400" stop-opacity="0.5"/>
<stop offset="0.5833" stop-color="#894D00" stop-opacity="0.2069"/>
<stop offset="0.995" stop-color="#975500" stop-opacity="0"/>
</radialGradient>
<radialGradient id="paint35_radial_7388_42108" cx="0" cy="0" r="1" gradientUnits="userSpaceOnUse" gradientTransform="translate(21.2186 18.2863) scale(68.6115)">
<stop stop-color="#7A4400" stop-opacity="0.5"/>
<stop offset="0.5833" stop-color="#894D00" stop-opacity="0.2069"/>
<stop offset="0.995" stop-color="#975500" stop-opacity="0"/>
</radialGradient>
<radialGradient id="paint36_radial_7388_42108" cx="0" cy="0" r="1" gradientUnits="userSpaceOnUse" gradientTransform="translate(28.6658 17.2382) scale(68.6118 68.6114)">
<stop stop-color="#7A4400" stop-opacity="0.5"/>
<stop offset="0.5833" stop-color="#894D00" stop-opacity="0.2069"/>
<stop offset="0.995" stop-color="#975500" stop-opacity="0"/>
</radialGradient>
<radialGradient id="paint37_radial_7388_42108" cx="0" cy="0" r="1" gradientUnits="userSpaceOnUse" gradientTransform="translate(31.1421 14.1428) scale(68.6115 68.6112)">
<stop stop-color="#7A4400" stop-opacity="0.5"/>
<stop offset="0.5833" stop-color="#894D00" stop-opacity="0.2069"/>
<stop offset="0.995" stop-color="#975500" stop-opacity="0"/>
</radialGradient>
<radialGradient id="paint38_radial_7388_42108" cx="0" cy="0" r="1" gradientUnits="userSpaceOnUse" gradientTransform="translate(24.4621 27.377) rotate(-28.5684) scale(94.9673 94.8887)">
<stop stop-color="#7A4400" stop-opacity="0.5"/>
<stop offset="0.5833" stop-color="#894D00" stop-opacity="0.2069"/>
<stop offset="0.995" stop-color="#975500" stop-opacity="0"/>
</radialGradient>
<linearGradient id="paint39_linear_7388_42108" x1="17.6684" y1="34.3328" x2="15.475" y2="30.6748" gradientUnits="userSpaceOnUse">
<stop stop-color="#FF9214"/>
<stop offset="1" stop-color="#FF4E0D"/>
</linearGradient>
<linearGradient id="paint40_linear_7388_42108" x1="68.6917" y1="24.2908" x2="55.9636" y2="21.8983" gradientUnits="userSpaceOnUse">
<stop stop-color="#80DAFE"/>
<stop offset="1" stop-color="#008EE6"/>
</linearGradient>
<linearGradient id="paint41_linear_7388_42108" x1="59.9646" y1="15.1077" x2="69.0034" y2="16.8882" gradientUnits="userSpaceOnUse">
<stop stop-color="#FFCB4B"/>
<stop offset="1" stop-color="#E81CA2"/>
</linearGradient>
<linearGradient id="paint42_linear_7388_42108" x1="36.7304" y1="16.2251" x2="27.3392" y2="16.4559" gradientUnits="userSpaceOnUse">
<stop stop-color="#FBE07A"/>
<stop offset="1" stop-color="#E81CA2"/>
</linearGradient>
<linearGradient id="paint43_linear_7388_42108" x1="51.8993" y1="12.3592" x2="52.2167" y2="16.1687" gradientUnits="userSpaceOnUse">
<stop stop-color="#80DAFE"/>
<stop offset="1" stop-color="#008EE6"/>
</linearGradient>
<linearGradient id="paint44_linear_7388_42108" x1="67.6065" y1="36.1457" x2="64.4472" y2="32.7173" gradientUnits="userSpaceOnUse">
<stop stop-color="#FFCB4B"/>
<stop offset="1" stop-color="#E81CA2"/>
</linearGradient>
<linearGradient id="paint45_linear_7388_42108" x1="15.6722" y1="45.9802" x2="17.892" y2="46.3978" gradientUnits="userSpaceOnUse">
<stop offset="0.2544" stop-color="#9F00E8"/>
<stop offset="1" stop-color="#7000A3"/>
</linearGradient>
<linearGradient id="paint46_linear_7388_42108" x1="49.58" y1="46.437" x2="53.834" y2="40.8497" gradientUnits="userSpaceOnUse">
<stop stop-color="#80DAFE"/>
<stop offset="1" stop-color="#008EE6"/>
</linearGradient>
<linearGradient id="paint47_linear_7388_42108" x1="9.97275" y1="57.0612" x2="15.0627" y2="58.8836" gradientUnits="userSpaceOnUse">
<stop stop-color="#FF9214"/>
<stop offset="1" stop-color="#FF4E0D"/>
</linearGradient>
<linearGradient id="paint48_linear_7388_42108" x1="56.1295" y1="6.9846" x2="35.8585" y2="21.1519" gradientUnits="userSpaceOnUse">
<stop stop-color="#FBE07A"/>
<stop offset="1" stop-color="#E81CA2"/>
</linearGradient>
<radialGradient id="paint49_radial_7388_42108" cx="0" cy="0" r="1" gradientUnits="userSpaceOnUse" gradientTransform="translate(8.30801 50.5097) scale(32.404 32.404)">
<stop stop-color="#7A4400" stop-opacity="0.5"/>
<stop offset="0.5833" stop-color="#894D00" stop-opacity="0.2069"/>
<stop offset="0.995" stop-color="#975500" stop-opacity="0"/>
</radialGradient>
<linearGradient id="paint50_linear_7388_42108" x1="28.164" y1="45.1339" x2="19.8985" y2="78.6048" gradientUnits="userSpaceOnUse">
<stop stop-color="#F78174"/>
<stop offset="0.3893" stop-color="#8800C7"/>
<stop offset="1" stop-color="#3640FF"/>
</linearGradient>
</defs>
</svg>
