<svg width="42" height="42" viewBox="0 0 42 42" fill="none" xmlns="http://www.w3.org/2000/svg">
<path d="M40.4176 19.9117C30.2935 19.9117 22.0574 11.6905 22.0574 1.58815C22.0574 0.991865 21.5774 0.5 20.975 0.5C20.3726 0.5 19.8926 0.991865 19.8926 1.58815C19.8926 11.693 11.6776 19.9141 1.58241 19.9141C0.980048 19.9141 0.5 20.4059 0.5 21.0022C0.5 21.5987 0.979825 22.0908 1.58241 22.0908C11.6777 22.0908 19.8926 30.3095 19.8926 40.4114C19.8926 41.0073 20.3722 41.5 20.975 41.5C21.5776 41.5 22.0574 41.0079 22.0574 40.4114C22.0574 30.3095 30.2935 22.0879 40.4176 22.0879C41.02 22.0879 41.5 21.5961 41.5 20.9998C41.5 20.4035 41.02 19.9117 40.4176 19.9117ZM8.16984 21.0026C14.1763 18.9536 18.9355 14.1839 20.9764 8.16735C23.0225 14.1832 27.7937 18.9515 33.8142 21.0002C27.7936 23.0487 23.0221 27.8176 20.9763 33.8336C18.9353 27.8188 14.1762 23.051 8.16984 21.0026Z" fill="url(#paint0_linear_6845_40439)" stroke="url(#paint1_linear_6845_40439)"/>
<defs>
<linearGradient id="paint0_linear_6845_40439" x1="35.3669" y1="21" x2="15.9764" y2="14.0239" gradientUnits="userSpaceOnUse">
<stop stop-color="#FFA847"/>
<stop offset="1" stop-color="#9461FA"/>
</linearGradient>
<linearGradient id="paint1_linear_6845_40439" x1="35.3669" y1="21" x2="15.9764" y2="14.0239" gradientUnits="userSpaceOnUse">
<stop stop-color="#FFA847"/>
<stop offset="1" stop-color="#9461FA"/>
</linearGradient>
</defs>
</svg>
